<svg
   xmlns="http://www.w3.org/2000/svg"
   version="1.1"
   height="16"
   width="19"
   viewBox="0 0 19 16"
>
  <path
     style="fill:#0C0C0D;fill-opacity:1"
     d="M 4,2 C 2.8954305,2 2,2.8954305 2,4 v 6 H 1 c -1.33200009,0.0013 -1.33200009,1.998668 0,2 H 4 V 7 C 4,5.1640625 4.950118,4 7,4 h 7 C 14,2.8954305 13.104569,2 12,2 Z"
     />
  <path
     d="m 18.000001,13 h -1 V 6.9999996 A 2,2 0 0 0 15.000001,5 H 7.0000007 a 2,2 0 0 0 -2,1.9999996 V 13 h -1 a 1.0000007,1.0000007 0 0 0 0,2.000001 H 18.000001 a 1.0000007,1.0000007 0 1 0 0,-2.000001 z"
     style="fill:#0C0C0D;fill-opacity:1" />
</svg>
