<?xml version="1.0" encoding="UTF-8" standalone="no"?>
<svg
   xmlns="http://www.w3.org/2000/svg"
   id="svg4"
   version="1.1"
   height="16"
   width="16"
   viewBox="0 0 16 16">
  <g style="fill:#000700;fill-opacity:1"
    <g style="fill:rgba(247,247,247,.7);fill-opacity:1">
      <path
         style="fill:rgba(247,247,247,.7);fill-opacity:1"
         d="M 11.996846,11 11.5,10.5 c -0.994423,-1.0007354 -0.470749,-1.5292513 0,-2 0.470749,-0.4707487 1.022943,-0.9770571 2,0 L 14,9 V 5 C 14,3.8954305 13.104569,3 12,3 H 4 C 2.8954305,3 2,3.8954305 2,5 v 6 H 1 c -1.33333275,0 -1.33333275,2 0,2 h 6 v -1 c 0,-0.552285 0.4477153,-1 1,-1 z" />
      <path
         style="fill:rgba(247,247,247,.7);fill-opacity:1;stroke-width:0.5"
         d="m 15.853498,12.140356 -3,-3.0000012 c -0.471263,-0.4551463 -1.162146,0.2357365 -0.707,0.7069996 l 2.1465,2.1465016 H 8.5 c -0.6666664,0 -0.6666664,1 0,1 h 5.792998 l -2.1465,2.1465 c -0.487932,0.471261 0.235739,1.194932 0.707,0.707 l 3,-3 c 0.195191,-0.19525 0.195191,-0.51175 0,-0.707 z"
         />
    </g>
  </g>
</svg>
